Coordinates
version=1
nRows=8
nColumns=40
inDegrees=yes

Units are S.I. units (second, meters, Newtons, ...)
Angles are in degrees.

endheader
time	pelvis_tilt	pelvis_list	pelvis_rotation	pelvis_tx	pelvis_ty	pelvis_tz	hip_flexion_r	hip_adduction_r	hip_rotation_r	knee_angle_r	knee_angle_r_beta	ankle_angle_r	subtalar_angle_r	mtp_angle_r	hip_flexion_l	hip_adduction_l	hip_rotation_l	knee_angle_l	knee_angle_l_beta	ankle_angle_l	subtalar_angle_l	mtp_angle_l	lumbar_extension	lumbar_bending	lumbar_rotation	arm_flex_r	arm_add_r	arm_rot_r	elbow_flex_r	pro_sup_r	wrist_flex_r	wrist_dev_r	arm_flex_l	arm_add_l	arm_rot_l	elbow_flex_l	pro_sup_l	wrist_flex_l	wrist_dev_l
      1.85000000	     -2.12715573	     -7.24933257	     -3.86899678	      0.97555897	      0.91096534	      0.37716225	     24.31075105	     -6.30287042	     -1.41558357	     59.81652818	     59.81652818	      6.03608556	     -6.09914470	     -2.98868194	     22.59160891	     -5.88157628	     -3.79791005	     37.86175708	     37.86175708	     19.75832831	    -17.36840584	      6.38535298	    -12.52565724	      7.32445209	      3.34018122	     20.51584758	    -12.04858193	     -8.74677725	     32.48800496	     45.38745215	      0.00000000	      0.00000000	     20.76632421	    -15.40515405	     18.62738133	     32.35844092	     44.53376281	      0.00000000	      0.00000000
      1.87250000	     -2.14870089	     -7.22385097	     -4.85601883	      0.97422269	      0.91047572	      0.37543529	     25.45081635	     -6.13557239	     -1.05816416	     59.97979877	     59.97979877	      6.01803188	     -6.16553428	     -2.95855177	     22.29823490	     -5.91466689	     -4.49359388	     38.04812630	     38.04812630	     20.21560732	    -17.61047980	      6.61544286	    -12.42898192	      7.48801874	      2.80835352	     16.18057843	    -12.24148839	     -8.72177046	     30.80705340	     45.43173931	      0.00000000	      0.00000000	     22.36889616	    -15.79675961	     18.13015552	     33.74461293	     44.63561483	      0.00000000	      0.00000000
      1.89500000	     -2.10089464	     -7.24033385	     -5.88524293	      0.97283377	      0.91046967	      0.37381777	     26.43636195	     -5.90076512	     -0.79145994	     59.80786038	     59.80786038	      6.11114719	     -6.09059953	     -2.83841552	     21.82680829	     -5.99184687	     -5.25736478	     38.08504735	     38.08504735	     20.74226169	    -17.83699530	      7.12129133	    -12.51838107	      7.70095223	      2.61843122	     11.43692147	    -12.73763293	     -8.62062437	     29.23326815	     45.46740400	      0.00000000	      0.00000000	     24.08495405	    -16.15585879	     17.21363274	     35.74916839	     44.80040355	      0.00000000	      0.00000000
      1.91750000	     -2.12989491	     -7.19551142	     -6.97197953	      0.97124469	      0.91086442	      0.37248639	     27.43445742	     -5.63583421	     -0.47907442	     59.23251335	     59.23251335	      6.20387408	     -5.91982356	     -2.75567827	     21.30497360	     -6.02556413	     -6.10252008	     37.86139494	     37.86139494	     21.13253055	    -18.02225878	      7.57745941	    -12.55128506	      7.84939002	      2.35108551	      6.81258210	    -13.24160939	     -8.53162706	     27.72740693	     45.49903888	      0.00000000	      0.00000000	     25.80984268	    -16.63192205	     16.14267965	     37.62093033	     44.97579714	      0.00000000	      0.00000000
      1.94000000	     -2.18029988	     -7.13733052	     -8.07302092	      0.96953181	      0.91195132	      0.37157114	     28.28005047	     -5.29969886	     -0.17746678	     58.08804042	     58.08804042	      6.28451948	     -5.62692978	     -2.72782720	     20.63925847	     -6.05632388	     -7.01141328	     37.31286112	     37.31286112	     21.38500581	    -18.12227238	      8.00610970	    -12.59330891	      7.97800460	      2.17552086	      2.30742819	    -13.74383881	     -8.48351082	     26.35262349	     45.52852691	      0.00000000	      0.00000000	     27.53475439	    -17.13431785	     14.87087012	     39.53948535	     45.16706007	      0.00000000	      0.00000000
      1.96250000	     -2.32448644	     -7.11753014	     -9.17756426	      0.96761783	      0.91357310	      0.37108595	     28.99069949	     -4.86635043	      0.03668602	     56.27658282	     56.27658282	      6.12424497	     -5.29870048	     -3.49779355	     19.96494041	     -6.14810993	     -7.93884822	     36.53847744	     36.53847744	     21.61832045	    -18.13119180	      8.71814051	    -12.64057142	      8.17160040	      1.52882706	     -2.37497604	    -14.26392815	     -8.34980002	     27.29883938	     45.50120698	      0.00000000	      0.00000000	     28.28952881	    -17.55183358	      9.83971845	     42.82217942	     45.80528415	      0.00000000	      0.00000000
      1.98500000	     -2.48084515	     -7.03632061	    -10.26798858	      0.96557377	      0.91585280	      0.37108690	     29.50358668	     -4.45094631	      0.25252931	     53.87494433	     53.87494433	      6.23912536	     -4.60686947	     -3.60974635	     19.10889278	     -6.18051976	     -8.95349104	     35.34029775	     35.34029775	     21.48031992	    -18.12341762	      8.90220116	    -12.57240532	      8.21849350	      1.33101635	     -6.16646076	    -14.62952005	     -8.28290186	     25.86453422	     45.54005043	      0.00000000	      0.00000000	     30.06325551	    -18.21540062	      8.76218684	     44.26913906	     45.95341717	      0.00000000	      0.00000000
      2.00750000	     -2.78427230	     -6.99863267	    -11.33442833	      0.96335537	      0.91843194	      0.37159379	     29.84134328	     -3.94290891	      0.37172536	     50.68418081	     50.68418081	      5.75868403	     -4.02188269	     -5.20257607	     18.28666553	     -6.30994048	    -10.03912610	     33.86613715	     33.86613715	     20.89278850	    -18.05497306	      8.14890803	    -12.41600122	      8.33486097	      0.89289553	    -10.13294283	    -14.93730173	     -8.52246879	     26.45919034	     45.55722492	      0.00000000	      0.00000000	     30.97167881	    -18.68227995	      4.83970505	     47.22044527	     46.39637420	      0.00000000	      0.00000000
